<?xml version="1.0" encoding="utf-8"?>
<svg version="1.1" id="Layer_1" xmlns="http://www.w3.org/2000/svg" xmlns:xlink="http://www.w3.org/1999/xlink" x="0px" y="0px"
	 viewBox="0 0 512 512"  xml:space="preserve" stroke="#f513bc" fill="#f513bc" stroke-width="2" stroke-linecap="round" stroke-linejoin="round" >
<style type="text/css">
	.st0{fill:#010101;}
</style>
<title>01</title>
<path class="st0" d="M503,248.6L305,50.7c-0.7-0.7-1.4-1.5-2.2-2.2c-21.9-20.7-56.5-19.8-77.2,2.1c-20.7,21.9-19.8,56.5,2.1,77.2
	l76,76H58.1c-28.2,0.4-51,23.2-51.4,51.4C6.3,284,29.3,307.7,58.1,308h245.7l-76,76c-10.3,10.2-16,24.1-16,38.6
	c0,30.1,24.5,54.6,54.6,54.6c14.5,0,28.4-5.7,38.6-16l198-197.9c0,0,0,0,0,0C507.1,259.3,507.1,252.7,503,248.6z M290.3,446.5
	c-13.1,12.9-34.2,12.9-47.3,0c-13.3-13.1-13.5-34.5-0.5-47.8l93.8-93.8c1.9-1.9,3-4.6,3-7.3c0-5.7-4.6-10.4-10.4-10.4H58.1
	c-16.8-0.3-30.4-13.9-30.7-30.7c-0.3-17.3,13.4-31.5,30.7-31.8l270.8,0c2.8,0,5.4-1.1,7.4-3.1c4.1-4.1,4.1-10.7,0-14.7l-93.8-93.8
	c-12.9-13.1-12.9-34.2,0-47.3c13.1-13.3,34.5-13.5,47.8-0.5L480.9,256L290.3,446.5z"/>
</svg>
